<?xml version="1.0" encoding="us-ascii" standalone="no"?><svg xmlns="http://www.w3.org/2000/svg" xmlns:xlink="http://www.w3.org/1999/xlink" contentStyleType="text/css" height="582px" preserveAspectRatio="none" style="width:490px;height:582px;background:#FFFFFF;" version="1.1" viewBox="0 0 490 582" width="490px" zoomAndPan="magnify"><defs/><g><!--class Capacidad--><g id="elem_Capacidad"><rect codeLine="5" fill="#F1F1F1" height="48.1358" id="Capacidad" rx="2.5" ry="2.5" style="stroke:#181818;stroke-width:0.5;" width="77" x="217" y="7"/><text fill="#000000" font-family="sans-serif" font-size="14" lengthAdjust="spacing" textLength="71" x="220" y="26.9659">Capacidad</text><text fill="#000000" font-family="sans-serif" font-size="14" lengthAdjust="spacing" textLength="47" x="234" y="46.0339">Mental</text></g><!--class Limitacion--><g id="elem_Limitacion"><rect codeLine="6" fill="#F1F1F1" height="29.0679" id="Limitacion" rx="2.5" ry="2.5" style="stroke:#181818;stroke-width:0.5;" width="75" x="7" y="261"/><text fill="#000000" font-family="sans-serif" font-size="14" lengthAdjust="spacing" textLength="69" x="10" y="280.9659">Limitaci&#243;n</text></g><!--class CapacidadCuantitativa--><g id="elem_CapacidadCuantitativa"><rect codeLine="7" fill="#F1F1F1" height="67.2038" id="CapacidadCuantitativa" rx="2.5" ry="2.5" style="stroke:#181818;stroke-width:0.5;" width="87" x="164" y="115"/><text fill="#000000" font-family="sans-serif" font-size="14" lengthAdjust="spacing" textLength="71" x="170" y="134.9659">Capacidad</text><text fill="#000000" font-family="sans-serif" font-size="14" lengthAdjust="spacing" textLength="47" x="182" y="154.0339">Mental</text><text fill="#000000" font-family="sans-serif" font-size="14" lengthAdjust="spacing" textLength="81" x="167" y="173.1018">Cuantitativa</text></g><!--class MagicoMiller--><g id="elem_MagicoMiller"><rect codeLine="8" fill="#F1F1F1" height="67.2038" id="MagicoMiller" rx="2.5" ry="2.5" style="stroke:#181818;stroke-width:0.5;" width="76" x="117.5" y="242"/><text fill="#000000" font-family="sans-serif" font-size="14" lengthAdjust="spacing" textLength="55" x="126" y="261.9659">N&#250;mero</text><text fill="#000000" font-family="sans-serif" font-size="14" lengthAdjust="spacing" textLength="70" x="120.5" y="281.0339">M&#225;gico de</text><text fill="#000000" font-family="sans-serif" font-size="14" lengthAdjust="spacing" textLength="39" x="138" y="300.1018">Miller</text></g><!--class EnfoqueVisual--><g id="elem_EnfoqueVisual"><rect codeLine="9" fill="#F1F1F1" height="48.1358" id="EnfoqueVisual" rx="2.5" ry="2.5" style="stroke:#181818;stroke-width:0.5;" width="62" x="228.5" y="251.5"/><text fill="#000000" font-family="sans-serif" font-size="14" lengthAdjust="spacing" textLength="56" x="231.5" y="271.4659">Enfoque</text><text fill="#000000" font-family="sans-serif" font-size="14" lengthAdjust="spacing" textLength="40" x="241.5" y="290.5339">Visual</text></g><!--class CapacidadCualitativa--><g id="elem_CapacidadCualitativa"><rect codeLine="10" fill="#F1F1F1" height="67.2038" id="CapacidadCualitativa" rx="2.5" ry="2.5" style="stroke:#181818;stroke-width:0.5;" width="81" x="326" y="242"/><text fill="#000000" font-family="sans-serif" font-size="14" lengthAdjust="spacing" textLength="71" x="329" y="261.9659">Capacidad</text><text fill="#000000" font-family="sans-serif" font-size="14" lengthAdjust="spacing" textLength="47" x="341" y="281.0339">Mental</text><text fill="#000000" font-family="sans-serif" font-size="14" lengthAdjust="spacing" textLength="71" x="331" y="300.1018">Cualitativa</text></g><!--class Abstraccion--><g id="elem_Abstraccion"><rect codeLine="11" fill="#F1F1F1" height="29.0679" id="Abstraccion" rx="2.5" ry="2.5" style="stroke:#181818;stroke-width:0.5;" width="85" x="260" y="547"/><text fill="#000000" font-family="sans-serif" font-size="14" lengthAdjust="spacing" textLength="79" x="263" y="566.9659">Abstracci&#243;n</text></g><!--class Encapsulacion--><g id="elem_Encapsulacion"><rect codeLine="12" fill="#F1F1F1" height="29.0679" id="Encapsulacion" rx="2.5" ry="2.5" style="stroke:#181818;stroke-width:0.5;" width="103" x="380" y="547"/><text fill="#000000" font-family="sans-serif" font-size="14" lengthAdjust="spacing" textLength="97" x="383" y="566.9659">Encapsulaci&#243;n</text></g><!--class Modularizacion--><g id="elem_Modularizacion"><rect codeLine="13" fill="#F1F1F1" height="29.0679" id="Modularizacion" rx="2.5" ry="2.5" style="stroke:#181818;stroke-width:0.5;" width="110" x="311.5" y="458"/><text fill="#000000" font-family="sans-serif" font-size="14" lengthAdjust="spacing" textLength="104" x="314.5" y="477.9659">Modularizaci&#243;n</text></g><!--class Jeraquizacion--><g id="elem_Jeraquizacion"><rect codeLine="14" fill="#F1F1F1" height="29.0679" id="Jeraquizacion" rx="2.5" ry="2.5" style="stroke:#181818;stroke-width:0.5;" width="103" x="315" y="369"/><text fill="#000000" font-family="sans-serif" font-size="14" lengthAdjust="spacing" textLength="97" x="318" y="388.9659">Jerarquizaci&#243;n</text></g><!--reverse link Capacidad to CapacidadCuantitativa--><g id="link_Capacidad_CapacidadCuantitativa"><path codeLine="16" d="M238.9928,71.722 C231.8828,88.832 229,95.77 221.08,114.82 " fill="none" id="Capacidad-backto-CapacidadCuantitativa" style="stroke:#181818;stroke-width:1.0;"/><polygon fill="none" points="245.9,55.1,233.4521,69.4196,244.5335,74.0244,245.9,55.1" style="stroke:#181818;stroke-width:1.0;"/></g><!--link CapacidadCuantitativa to Limitacion--><g id="link_CapacidadCuantitativa_Limitacion"><path codeLine="17" d="M155.5769,189.3214 C122.1869,214.9214 91.6008,238.3783 67.0908,257.1783 " fill="none" id="CapacidadCuantitativa-Limitacion" style="stroke:#181818;stroke-width:1.0;"/><polygon fill="#181818" points="165.1,182.02,157.9046,182.4963,155.5769,189.3214,162.7722,188.8451,165.1,182.02" style="stroke:#181818;stroke-width:1.0;"/><polygon fill="#181818" points="62.33,260.83,71.9057,258.5263,66.2973,257.7869,67.0367,252.1786,62.33,260.83" style="stroke:#181818;stroke-width:1.0;"/></g><!--reverse link CapacidadCuantitativa to MagicoMiller--><g id="link_CapacidadCuantitativa_MagicoMiller"><path codeLine="19" d="M187.0578,198.6399 C179.4178,217.0099 176.8,223.29 169.14,241.71 " fill="none" id="CapacidadCuantitativa-backto-MagicoMiller" style="stroke:#181818;stroke-width:1.0;"/><polygon fill="none" points="193.97,182.02,181.5179,196.3359,192.5978,200.944,193.97,182.02" style="stroke:#181818;stroke-width:1.0;"/></g><!--reverse link CapacidadCuantitativa to EnfoqueVisual--><g id="link_CapacidadCuantitativa_EnfoqueVisual"><path codeLine="21" d="M227.9389,198.6413 C236.9589,220.3413 241.71,231.74 249.82,251.22 " fill="none" id="CapacidadCuantitativa-backto-EnfoqueVisual" style="stroke:#181818;stroke-width:1.0;"/><polygon fill="none" points="221.03,182.02,222.3985,200.9442,233.4794,196.3383,221.03,182.02" style="stroke:#181818;stroke-width:1.0;"/></g><!--reverse link Capacidad to CapacidadCualitativa--><g id="link_Capacidad_CapacidadCualitativa"><path codeLine="23" d="M273.6313,71.617 C293.4913,115.007 328.75,192.03 351.52,241.77 " fill="none" id="Capacidad-backto-CapacidadCualitativa" style="stroke:#181818;stroke-width:1.0;"/><polygon fill="none" points="266.14,55.25,268.1757,74.1141,279.087,69.1199,266.14,55.25" style="stroke:#181818;stroke-width:1.0;"/></g><!--reverse link Limitacion to CapacidadCualitativa--><g id="link_Limitacion_CapacidadCualitativa"><path codeLine="24" d="M59.4932,256.1958 C72.3332,240.6658 91.16,221.72 117,212 C189.39,184.78 218.35,185.51 291,212 C307.9,218.16 323.63,229.95 336.32,241.71 " fill="none" id="Limitacion-backto-CapacidadCualitativa" style="stroke:#181818;stroke-width:1.0;"/><polygon fill="#181818" points="55.67,260.82,64.4876,256.4325,58.856,256.9665,58.322,251.3349,55.67,260.82" style="stroke:#181818;stroke-width:1.0;"/></g><!--link CapacidadCualitativa to Jeraquizacion--><g id="link_CapacidadCualitativa_Jeraquizacion"><path codeLine="26" d="M366.5,321.17 C366.5,341.24 366.5,347.9 366.5,362.9 " fill="none" id="CapacidadCualitativa-Jeraquizacion" style="stroke:#181818;stroke-width:1.0;"/><polygon fill="#181818" points="366.5,309.17,362.5,315.17,366.5,321.17,370.5,315.17,366.5,309.17" style="stroke:#181818;stroke-width:1.0;"/><polygon fill="#181818" points="366.5,368.9,370.5,359.9,366.5,363.9,362.5,359.9,366.5,368.9" style="stroke:#181818;stroke-width:1.0;"/></g><!--link Modularizacion to Abstraccion--><g id="link_Modularizacion_Abstraccion"><path codeLine="27" d="M349.3907,496.7574 C337.4407,513.0074 328.2168,525.5479 316.1968,541.8779 " fill="none" id="Modularizacion-Abstraccion" style="stroke:#181818;stroke-width:1.0;"/><polygon fill="#181818" points="356.5,487.09,349.7229,489.5539,349.3907,496.7574,356.1678,494.2934,356.5,487.09" style="stroke:#181818;stroke-width:1.0;"/><polygon fill="#181818" points="312.64,546.71,321.1966,541.833,315.604,542.6832,314.7537,537.0906,312.64,546.71" style="stroke:#181818;stroke-width:1.0;"/></g><!--link Modularizacion to Encapsulacion--><g id="link_Modularizacion_Encapsulacion"><path codeLine="28" d="M383.842,496.7035 C395.982,512.9535 405.409,525.5733 417.609,541.9033 " fill="none" id="Modularizacion-Encapsulacion" style="stroke:#181818;stroke-width:1.0;"/><polygon fill="#181818" points="376.66,487.09,377.0465,494.2907,383.842,496.7035,383.4555,489.5027,376.66,487.09" style="stroke:#181818;stroke-width:1.0;"/><polygon fill="#181818" points="421.2,546.71,419.0179,537.1059,418.2075,542.7044,412.609,541.894,421.2,546.71" style="stroke:#181818;stroke-width:1.0;"/></g><!--link Jeraquizacion to Modularizacion--><g id="link_Jeraquizacion_Modularizacion"><path codeLine="29" d="M366.5,410.09 C366.5,426.34 366.5,435.38 366.5,451.71 " fill="none" id="Jeraquizacion-Modularizacion" style="stroke:#181818;stroke-width:1.0;"/><polygon fill="#181818" points="366.5,398.09,362.5,404.09,366.5,410.09,370.5,404.09,366.5,398.09" style="stroke:#181818;stroke-width:1.0;"/><polygon fill="#181818" points="366.5,457.71,370.5,448.71,366.5,452.71,362.5,448.71,366.5,457.71" style="stroke:#181818;stroke-width:1.0;"/></g><!--SRC=[XP5BJiCm48RtEONL9L9kW92ggXj4MBBgPcfFgQM9dVe10d4Ppi2ERIv6t3nijmtPELy-__ezSvG26PU64nR7SCQwSH-indgFnXO59x2MhJRG09S2n4wn2fK3MZ6mRCAZzoHhwJhK_gYpC7vhTPN4TgfFwWuR3yfrefDla0UdVyQ8v_QtHgD3GFlzAhbc0aClIOJcVBs2W7imtjggWpxv8Bv8wuS73B0dInLfhY5T55plhJF0unWc4EUmLHmQwoaPLeAYLsdH4IC_4p5bqNn40-RaCpEm0NLY4Lzs_rKA_QxAcKdVfEokl_EGhdL6dVApLIp9-JgMwjAjjYDa9U71_TELhbwL3oiVShJINSuv-IQpt2XTRF4F]--></g></svg>