<?xml version="1.0" encoding="us-ascii" standalone="no"?><svg xmlns="http://www.w3.org/2000/svg" xmlns:xlink="http://www.w3.org/1999/xlink" contentStyleType="text/css" height="287px" preserveAspectRatio="none" style="width:411px;height:287px;background:#FFFFFF;" version="1.1" viewBox="0 0 411 287" width="411px" zoomAndPan="magnify"><defs/><g><!--class Mantenibilidad--><g id="elem_Mantenibilidad"><rect codeLine="7" fill="#F1F1F1" height="29.0679" id="Mantenibilidad" rx="2.5" ry="2.5" style="stroke:#181818;stroke-width:0.5;" width="109" x="151" y="7"/><text fill="#000000" font-family="sans-serif" font-size="14" lengthAdjust="spacing" textLength="103" x="154" y="26.9659">Mantenibilidad</text></g><!--class MantenibilidadCorrectiva--><g id="elem_MantenibilidadCorrectiva"><rect codeLine="8" fill="#F1F1F1" height="48.1358" id="MantenibilidadCorrectiva" rx="2.5" ry="2.5" style="stroke:#181818;stroke-width:0.5;" width="109" x="7" y="96"/><text fill="#000000" font-family="sans-serif" font-size="14" lengthAdjust="spacing" textLength="103" x="10" y="115.9659">Mantenibilidad</text><text fill="#000000" font-family="sans-serif" font-size="14" lengthAdjust="spacing" textLength="68" x="27.5" y="135.0339">Correctiva</text></g><!--class MantenibilidadAdaptativa--><g id="elem_MantenibilidadAdaptativa"><rect codeLine="9" fill="#F1F1F1" height="48.1358" id="MantenibilidadAdaptativa" rx="2.5" ry="2.5" style="stroke:#181818;stroke-width:0.5;" width="109" x="151" y="96"/><text fill="#000000" font-family="sans-serif" font-size="14" lengthAdjust="spacing" textLength="103" x="154" y="115.9659">Mantenibilidad</text><text fill="#000000" font-family="sans-serif" font-size="14" lengthAdjust="spacing" textLength="72" x="169.5" y="135.0339">Adaptativa</text></g><!--class MantenibilidadPerfectiva--><g id="elem_MantenibilidadPerfectiva"><rect codeLine="10" fill="#F1F1F1" height="48.1358" id="MantenibilidadPerfectiva" rx="2.5" ry="2.5" style="stroke:#181818;stroke-width:0.5;" width="109" x="295" y="96"/><text fill="#000000" font-family="sans-serif" font-size="14" lengthAdjust="spacing" textLength="103" x="298" y="115.9659">Mantenibilidad</text><text fill="#000000" font-family="sans-serif" font-size="14" lengthAdjust="spacing" textLength="66" x="316.5" y="135.0339">Perfectiva</text></g><!--entity Usuario--><g id="elem_Usuario"><ellipse cx="61.5" cy="212.5" fill="#F1F1F1" rx="8" ry="8" style="stroke:#181818;stroke-width:0.5;"/><path d="M61.5,220.5 L61.5,247.5 M48.5,228.5 L74.5,228.5 M61.5,247.5 L48.5,262.5 M61.5,247.5 L74.5,262.5 " fill="none" style="stroke:#181818;stroke-width:0.5;"/><text fill="#000000" font-family="sans-serif" font-size="14" lengthAdjust="spacing" textLength="52" x="35.5" y="278.9659">Usuario</text></g><!--entity Desarrollador--><g id="elem_Desarrollador"><ellipse cx="205.5" cy="212.5" fill="#F1F1F1" rx="8" ry="8" style="stroke:#181818;stroke-width:0.5;"/><path d="M205.5,220.5 L205.5,247.5 M192.5,228.5 L218.5,228.5 M205.5,247.5 L192.5,262.5 M205.5,247.5 L218.5,262.5 " fill="none" style="stroke:#181818;stroke-width:0.5;"/><text fill="#000000" font-family="sans-serif" font-size="14" lengthAdjust="spacing" textLength="92" x="159.5" y="278.9659">Desarrollador</text></g><!--entity Cliente--><g id="elem_Cliente"><ellipse cx="349.5" cy="212.5" fill="#F1F1F1" rx="8" ry="8" style="stroke:#181818;stroke-width:0.5;"/><path d="M349.5,220.5 L349.5,247.5 M336.5,228.5 L362.5,228.5 M349.5,247.5 L336.5,262.5 M349.5,247.5 L362.5,262.5 " fill="none" style="stroke:#181818;stroke-width:0.5;"/><text fill="#000000" font-family="sans-serif" font-size="14" lengthAdjust="spacing" textLength="47" x="326" y="278.9659">Cliente</text></g><!--reverse link Mantenibilidad to MantenibilidadCorrectiva--><g id="link_Mantenibilidad_MantenibilidadCorrectiva"><path codeLine="12" d="M170.2189,46.1433 C147.0389,61.6833 123.71,77.31 95.87,95.97 " fill="none" id="Mantenibilidad-backto-MantenibilidadCorrectiva" style="stroke:#181818;stroke-width:1.0;"/><polygon fill="none" points="185.17,36.12,166.8779,41.1596,173.56,51.127,185.17,36.12" style="stroke:#181818;stroke-width:1.0;"/></g><!--reverse link Mantenibilidad to MantenibilidadAdaptativa--><g id="link_Mantenibilidad_MantenibilidadAdaptativa"><path codeLine="13" d="M205.5,54.33 C205.5,69.86 205.5,77.32 205.5,95.88 " fill="none" id="Mantenibilidad-backto-MantenibilidadAdaptativa" style="stroke:#181818;stroke-width:1.0;"/><polygon fill="none" points="205.5,36.33,199.5,54.33,211.5,54.33,205.5,36.33" style="stroke:#181818;stroke-width:1.0;"/></g><!--reverse link Mantenibilidad to MantenibilidadPerfectiva--><g id="link_Mantenibilidad_MantenibilidadPerfectiva"><path codeLine="14" d="M240.7811,46.1433 C263.9611,61.6833 287.29,77.31 315.13,95.97 " fill="none" id="Mantenibilidad-backto-MantenibilidadPerfectiva" style="stroke:#181818;stroke-width:1.0;"/><polygon fill="none" points="225.83,36.12,237.44,51.127,244.1221,41.1596,225.83,36.12" style="stroke:#181818;stroke-width:1.0;"/></g><!--link MantenibilidadCorrectiva to Usuario--><g id="link_MantenibilidadCorrectiva_Usuario"><path codeLine="20" d="M61.5,144.14 C61.5,160.94 61.5,178.07 61.5,197.67 " fill="none" id="MantenibilidadCorrectiva-to-Usuario" style="stroke:#181818;stroke-width:1.0;"/><polygon fill="#181818" points="61.5,203.67,65.5,194.67,61.5,198.67,57.5,194.67,61.5,203.67" style="stroke:#181818;stroke-width:1.0;"/></g><!--link MantenibilidadCorrectiva to Desarrollador--><g id="link_MantenibilidadCorrectiva_Desarrollador"><path codeLine="21" d="M88.92,144.14 C108.92,161.01 131.8833,180.3919 155.1833,200.0419 " fill="none" id="MantenibilidadCorrectiva-to-Desarrollador" style="stroke:#181818;stroke-width:1.0;"/><polygon fill="#181818" points="159.77,203.91,155.4688,195.05,155.9478,200.6865,150.3112,201.1656,159.77,203.91" style="stroke:#181818;stroke-width:1.0;"/></g><!--link MantenibilidadAdaptativa to Desarrollador--><g id="link_MantenibilidadAdaptativa_Desarrollador"><path codeLine="22" d="M205.5,144.14 C205.5,160.94 205.5,178.07 205.5,197.67 " fill="none" id="MantenibilidadAdaptativa-to-Desarrollador" style="stroke:#181818;stroke-width:1.0;"/><polygon fill="#181818" points="205.5,203.67,209.5,194.67,205.5,198.67,201.5,194.67,205.5,203.67" style="stroke:#181818;stroke-width:1.0;"/></g><!--link MantenibilidadPerfectiva to Desarrollador--><g id="link_MantenibilidadPerfectiva_Desarrollador"><path codeLine="23" d="M322.08,144.14 C302.08,161.01 279.1167,180.3919 255.8167,200.0419 " fill="none" id="MantenibilidadPerfectiva-to-Desarrollador" style="stroke:#181818;stroke-width:1.0;"/><polygon fill="#181818" points="251.23,203.91,260.6888,201.1656,255.0522,200.6865,255.5312,195.05,251.23,203.91" style="stroke:#181818;stroke-width:1.0;"/></g><!--link MantenibilidadPerfectiva to Cliente--><g id="link_MantenibilidadPerfectiva_Cliente"><path codeLine="24" d="M349.5,144.14 C349.5,160.94 349.5,178.07 349.5,197.67 " fill="none" id="MantenibilidadPerfectiva-to-Cliente" style="stroke:#181818;stroke-width:1.0;"/><polygon fill="#181818" points="349.5,203.67,353.5,194.67,349.5,198.67,345.5,194.67,349.5,203.67" style="stroke:#181818;stroke-width:1.0;"/></g><!--SRC=[bKzB2i8m4Dtd5C5zRY22rAtWnfqWqsJKWJGfasWjU7W5WsaBqRhBl5_U0sjzTspeJkuiBcHGXeYCFlOjlczDh6rwOzF6NZROrCX126qX1Ba55z5HJPOCc0GknkZ1LPuPTQGRB2HCJPaisTS6sWW5UoPBzXtogVXx9eKOCtBvKCPtJfNxpZCC6iup33k1ZfxbFbo1oQThWm6OlRLWF2UiieIlZEc8N5OgjVhaV1MDuqjRVahpYd-bQSiJ]--></g></svg>