<?xml version="1.0" encoding="us-ascii" standalone="no"?><svg xmlns="http://www.w3.org/2000/svg" xmlns:xlink="http://www.w3.org/1999/xlink" contentStyleType="text/css" height="824px" preserveAspectRatio="none" style="width:834px;height:824px;background:#FFFFFF;" version="1.1" viewBox="0 0 834 824" width="834px" zoomAndPan="magnify"><defs/><g><!--cluster 1--><g id="cluster_1"><path d="M8.5,120.602 L17.5,120.602 A3.75,3.75 0 0 1 20,123.102 L27,145.6699 L148.5,145.6699 A2.5,2.5 0 0 1 151,148.1699 L151,500.102 A2.5,2.5 0 0 1 148.5,502.602 L8.5,502.602 A2.5,2.5 0 0 1 6,500.102 L6,123.102 A2.5,2.5 0 0 1 8.5,120.602 " fill="none" style="stroke:#000000;stroke-width:1.5;"/><line style="stroke:#000000;stroke-width:1.5;" x1="6" x2="27" y1="145.6699" y2="145.6699"/><text fill="#000000" font-family="sans-serif" font-size="14" font-weight="bold" lengthAdjust="spacing" textLength="8" x="10" y="137.5679">1</text><rect fill="#DDDDDD" height="48.1358" id="_legend" rx="7.5" ry="7.5" style="stroke:#000000;stroke-width:1.0;" width="104" x="30" y="159.6699"/><text fill="#000000" font-family="sans-serif" font-size="14" lengthAdjust="spacing" textLength="94" x="35" y="179.6358">Programaci&#243;n</text><text fill="#000000" font-family="sans-serif" font-size="14" lengthAdjust="spacing" textLength="85" x="35" y="198.7038">de Alto Nivel</text></g><!--cluster 2--><g id="cluster_2"><path d="M177.5,6.602 L186.5,6.602 A3.75,3.75 0 0 1 189,9.102 L196,31.6699 L317.5,31.6699 A2.5,2.5 0 0 1 320,34.1699 L320,605.102 A2.5,2.5 0 0 1 317.5,607.602 L177.5,607.602 A2.5,2.5 0 0 1 175,605.102 L175,9.102 A2.5,2.5 0 0 1 177.5,6.602 " fill="none" style="stroke:#000000;stroke-width:1.5;"/><line style="stroke:#000000;stroke-width:1.5;" x1="175" x2="196" y1="31.6699" y2="31.6699"/><text fill="#000000" font-family="sans-serif" font-size="14" font-weight="bold" lengthAdjust="spacing" textLength="8" x="179" y="23.5679">2</text><rect fill="#DDDDDD" height="162.5433" id="_legend" rx="7.5" ry="7.5" style="stroke:#000000;stroke-width:1.0;" width="104" x="199" y="45.6699"/><text fill="#000000" font-family="sans-serif" font-size="14" lengthAdjust="spacing" textLength="38" x="204" y="65.6358">T&#233;sis:</text><text fill="#000000" font-family="sans-serif" font-size="14" lengthAdjust="spacing" textLength="94" x="204" y="84.7038">Programaci&#243;n</text><text fill="#000000" font-family="sans-serif" font-size="14" lengthAdjust="spacing" textLength="80" x="204" y="103.7717">Orientado a</text><text fill="#000000" font-family="sans-serif" font-size="14" lengthAdjust="spacing" textLength="59" x="204" y="122.8396">Procesos</text><text fill="#000000" font-family="sans-serif" font-size="14" lengthAdjust="spacing" textLength="4" x="204" y="141.9075">&#160;</text><text fill="#000000" font-family="sans-serif" font-size="14" lengthAdjust="spacing" textLength="94" x="204" y="160.9754">Programaci&#243;n</text><text fill="#000000" font-family="sans-serif" font-size="14" lengthAdjust="spacing" textLength="61" x="204" y="180.0433">Modular.</text><text fill="#000000" font-family="sans-serif" font-size="14" lengthAdjust="spacing" textLength="38" x="204" y="199.1113">TAD`s</text></g><!--cluster 3--><g id="cluster_3"><path d="M346.5,120.602 L355.5,120.602 A3.75,3.75 0 0 1 358,123.102 L365,145.6699 L486.5,145.6699 A2.5,2.5 0 0 1 489,148.1699 L489,710.102 A2.5,2.5 0 0 1 486.5,712.602 L346.5,712.602 A2.5,2.5 0 0 1 344,710.102 L344,123.102 A2.5,2.5 0 0 1 346.5,120.602 " fill="none" style="stroke:#000000;stroke-width:1.5;"/><line style="stroke:#000000;stroke-width:1.5;" x1="344" x2="365" y1="145.6699" y2="145.6699"/><text fill="#000000" font-family="sans-serif" font-size="14" font-weight="bold" lengthAdjust="spacing" textLength="8" x="348" y="137.5679">3</text><rect fill="#DDDDDD" height="48.1358" id="_legend" rx="7.5" ry="7.5" style="stroke:#000000;stroke-width:1.0;" width="104" x="368" y="159.6699"/><text fill="#000000" font-family="sans-serif" font-size="14" lengthAdjust="spacing" textLength="94" x="373" y="179.6358">Programaci&#243;n</text><text fill="#000000" font-family="sans-serif" font-size="14" lengthAdjust="spacing" textLength="87" x="373" y="198.7038">Estructurada</text></g><!--cluster 4--><g id="cluster_4"><path d="M515.5,82.602 L524.5,82.602 A3.75,3.75 0 0 1 527,85.102 L534,107.6699 L655.5,107.6699 A2.5,2.5 0 0 1 658,110.1699 L658,290.102 A2.5,2.5 0 0 1 655.5,292.602 L515.5,292.602 A2.5,2.5 0 0 1 513,290.102 L513,85.102 A2.5,2.5 0 0 1 515.5,82.602 " fill="none" style="stroke:#000000;stroke-width:1.5;"/><line style="stroke:#000000;stroke-width:1.5;" x1="513" x2="534" y1="107.6699" y2="107.6699"/><text fill="#000000" font-family="sans-serif" font-size="14" font-weight="bold" lengthAdjust="spacing" textLength="8" x="517" y="99.5679">4</text><rect fill="#DDDDDD" height="86.2717" id="_legend" rx="7.5" ry="7.5" style="stroke:#000000;stroke-width:1.0;" width="104" x="537" y="121.6699"/><text fill="#000000" font-family="sans-serif" font-size="14" lengthAdjust="spacing" textLength="62" x="542" y="141.6358">Ant&#237;tesis:</text><text fill="#000000" font-family="sans-serif" font-size="14" lengthAdjust="spacing" textLength="94" x="542" y="160.7038">Programaci&#243;n</text><text fill="#000000" font-family="sans-serif" font-size="14" lengthAdjust="spacing" textLength="80" x="542" y="179.7717">Orientado a</text><text fill="#000000" font-family="sans-serif" font-size="14" lengthAdjust="spacing" textLength="38" x="542" y="198.8396">Datos</text></g><!--cluster 5--><g id="cluster_5"><path d="M684.5,82.602 L693.5,82.602 A3.75,3.75 0 0 1 696,85.102 L703,107.6699 L824.5,107.6699 A2.5,2.5 0 0 1 827,110.1699 L827,815.102 A2.5,2.5 0 0 1 824.5,817.602 L684.5,817.602 A2.5,2.5 0 0 1 682,815.102 L682,85.102 A2.5,2.5 0 0 1 684.5,82.602 " fill="none" style="stroke:#000000;stroke-width:1.5;"/><line style="stroke:#000000;stroke-width:1.5;" x1="682" x2="703" y1="107.6699" y2="107.6699"/><text fill="#000000" font-family="sans-serif" font-size="14" font-weight="bold" lengthAdjust="spacing" textLength="8" x="686" y="99.5679">5</text><rect fill="#DDDDDD" height="86.2717" id="_legend" rx="7.5" ry="7.5" style="stroke:#000000;stroke-width:1.0;" width="104" x="706" y="121.6699"/><text fill="#000000" font-family="sans-serif" font-size="14" lengthAdjust="spacing" textLength="56" x="711" y="141.6358">S&#237;ntesis:</text><text fill="#000000" font-family="sans-serif" font-size="14" lengthAdjust="spacing" textLength="94" x="711" y="160.7038">Programaci&#243;n</text><text fill="#000000" font-family="sans-serif" font-size="14" lengthAdjust="spacing" textLength="80" x="711" y="179.7717">Orientado a</text><text fill="#000000" font-family="sans-serif" font-size="14" lengthAdjust="spacing" textLength="52" x="711" y="198.8396">Objetos</text></g><!--class Subprograma--><g id="elem_Subprograma"><rect codeLine="8" fill="#F1F1F1" height="45.0679" id="Subprograma" rx="2.5" ry="2.5" style="stroke:#181818;stroke-width:0.5;" width="99" x="28.5" y="231.602"/><text fill="#000000" font-family="sans-serif" font-size="14" lengthAdjust="spacing" textLength="93" x="31.5" y="251.5679">Subprograma</text><line style="stroke:#181818;stroke-width:0.5;" x1="29.5" x2="126.5" y1="260.6699" y2="260.6699"/><line style="stroke:#181818;stroke-width:0.5;" x1="29.5" x2="126.5" y1="268.6699" y2="268.6699"/></g><!--class Expresion1--><g id="elem_Expresion1"><rect codeLine="9" fill="#F1F1F1" height="45.0679" id="Expresion1" rx="2.5" ry="2.5" style="stroke:#181818;stroke-width:0.5;" width="72" x="42" y="441.602"/><text fill="#000000" font-family="sans-serif" font-size="14" lengthAdjust="spacing" textLength="66" x="45" y="461.5679">Expresi&#243;n</text><line style="stroke:#181818;stroke-width:0.5;" x1="43" x2="113" y1="470.6699" y2="470.6699"/><line style="stroke:#181818;stroke-width:0.5;" x1="43" x2="113" y1="478.6699" y2="478.6699"/></g><!--class Asignacion--><g id="elem_Asignacion"><rect codeLine="10" fill="#F1F1F1" height="45.0679" id="Asignacion" rx="2.5" ry="2.5" style="stroke:#181818;stroke-width:0.5;" width="80" x="38" y="336.602"/><text fill="#000000" font-family="sans-serif" font-size="14" lengthAdjust="spacing" textLength="74" x="41" y="356.5679">Asignaci&#243;n</text><line style="stroke:#181818;stroke-width:0.5;" x1="39" x2="117" y1="365.6699" y2="365.6699"/><line style="stroke:#181818;stroke-width:0.5;" x1="39" x2="117" y1="373.6699" y2="373.6699"/></g><!--class Modulo2--><g id="elem_Modulo2"><rect codeLine="27" fill="#F1F1F1" height="45.0679" id="Modulo2" rx="2.5" ry="2.5" style="stroke:#181818;stroke-width:0.5;" width="57" x="218.5" y="231.602"/><text fill="#000000" font-family="sans-serif" font-size="14" lengthAdjust="spacing" textLength="51" x="221.5" y="251.5679">M&#243;dulo</text><line style="stroke:#181818;stroke-width:0.5;" x1="219.5" x2="274.5" y1="260.6699" y2="260.6699"/><line style="stroke:#181818;stroke-width:0.5;" x1="219.5" x2="274.5" y1="268.6699" y2="268.6699"/></g><!--class Subprograma2--><g id="elem_Subprograma2"><rect codeLine="28" fill="#F1F1F1" height="45.0679" id="Subprograma2" rx="2.5" ry="2.5" style="stroke:#181818;stroke-width:0.5;" width="99" x="197.5" y="336.602"/><text fill="#000000" font-family="sans-serif" font-size="14" lengthAdjust="spacing" textLength="93" x="200.5" y="356.5679">Subprograma</text><line style="stroke:#181818;stroke-width:0.5;" x1="198.5" x2="295.5" y1="365.6699" y2="365.6699"/><line style="stroke:#181818;stroke-width:0.5;" x1="198.5" x2="295.5" y1="373.6699" y2="373.6699"/></g><!--class Asignacion2--><g id="elem_Asignacion2"><rect codeLine="29" fill="#F1F1F1" height="45.0679" id="Asignacion2" rx="2.5" ry="2.5" style="stroke:#181818;stroke-width:0.5;" width="80" x="207" y="441.602"/><text fill="#000000" font-family="sans-serif" font-size="14" lengthAdjust="spacing" textLength="74" x="210" y="461.5679">Asignaci&#243;n</text><line style="stroke:#181818;stroke-width:0.5;" x1="208" x2="286" y1="470.6699" y2="470.6699"/><line style="stroke:#181818;stroke-width:0.5;" x1="208" x2="286" y1="478.6699" y2="478.6699"/></g><!--class Expresion2--><g id="elem_Expresion2"><rect codeLine="30" fill="#F1F1F1" height="45.0679" id="Expresion2" rx="2.5" ry="2.5" style="stroke:#181818;stroke-width:0.5;" width="72" x="211" y="546.602"/><text fill="#000000" font-family="sans-serif" font-size="14" lengthAdjust="spacing" textLength="66" x="214" y="566.5679">Expresi&#243;n</text><line style="stroke:#181818;stroke-width:0.5;" x1="212" x2="282" y1="575.6699" y2="575.6699"/><line style="stroke:#181818;stroke-width:0.5;" x1="212" x2="282" y1="583.6699" y2="583.6699"/></g><!--class Modulo3--><g id="elem_Modulo3"><rect codeLine="42" fill="#F1F1F1" height="45.0679" id="Modulo3" rx="2.5" ry="2.5" style="stroke:#181818;stroke-width:0.5;" width="57" x="387.5" y="231.602"/><text fill="#000000" font-family="sans-serif" font-size="14" lengthAdjust="spacing" textLength="51" x="390.5" y="251.5679">M&#243;dulo</text><line style="stroke:#181818;stroke-width:0.5;" x1="388.5" x2="443.5" y1="260.6699" y2="260.6699"/><line style="stroke:#181818;stroke-width:0.5;" x1="388.5" x2="443.5" y1="268.6699" y2="268.6699"/></g><!--class Subprograma3--><g id="elem_Subprograma3"><rect codeLine="43" fill="#F1F1F1" height="45.0679" id="Subprograma3" rx="2.5" ry="2.5" style="stroke:#181818;stroke-width:0.5;" width="99" x="366.5" y="336.602"/><text fill="#000000" font-family="sans-serif" font-size="14" lengthAdjust="spacing" textLength="93" x="369.5" y="356.5679">Subprograma</text><line style="stroke:#181818;stroke-width:0.5;" x1="367.5" x2="464.5" y1="365.6699" y2="365.6699"/><line style="stroke:#181818;stroke-width:0.5;" x1="367.5" x2="464.5" y1="373.6699" y2="373.6699"/></g><!--class Sentencia3--><g id="elem_Sentencia3"><rect codeLine="44" fill="#F1F1F1" height="45.0679" id="Sentencia3" rx="2.5" ry="2.5" style="stroke:#181818;stroke-width:0.5;" width="72" x="380" y="441.602"/><text fill="#000000" font-family="sans-serif" font-size="14" lengthAdjust="spacing" textLength="66" x="383" y="461.5679">Sentencia</text><line style="stroke:#181818;stroke-width:0.5;" x1="381" x2="451" y1="470.6699" y2="470.6699"/><line style="stroke:#181818;stroke-width:0.5;" x1="381" x2="451" y1="478.6699" y2="478.6699"/></g><!--class Asignacion3--><g id="elem_Asignacion3"><rect codeLine="45" fill="#F1F1F1" height="45.0679" id="Asignacion3" rx="2.5" ry="2.5" style="stroke:#181818;stroke-width:0.5;" width="80" x="376" y="546.602"/><text fill="#000000" font-family="sans-serif" font-size="14" lengthAdjust="spacing" textLength="74" x="379" y="566.5679">Asignaci&#243;n</text><line style="stroke:#181818;stroke-width:0.5;" x1="377" x2="455" y1="575.6699" y2="575.6699"/><line style="stroke:#181818;stroke-width:0.5;" x1="377" x2="455" y1="583.6699" y2="583.6699"/></g><!--class Expresion3--><g id="elem_Expresion3"><rect codeLine="46" fill="#F1F1F1" height="45.0679" id="Expresion3" rx="2.5" ry="2.5" style="stroke:#181818;stroke-width:0.5;" width="72" x="380" y="651.602"/><text fill="#000000" font-family="sans-serif" font-size="14" lengthAdjust="spacing" textLength="66" x="383" y="671.5679">Expresi&#243;n</text><line style="stroke:#181818;stroke-width:0.5;" x1="381" x2="451" y1="680.6699" y2="680.6699"/><line style="stroke:#181818;stroke-width:0.5;" x1="381" x2="451" y1="688.6699" y2="688.6699"/></g><!--class Entidad--><g id="elem_Entidad"><rect codeLine="62" fill="#F1F1F1" height="45.0679" id="Entidad" rx="2.5" ry="2.5" style="stroke:#181818;stroke-width:0.5;" width="58" x="556" y="231.602"/><text fill="#000000" font-family="sans-serif" font-size="14" lengthAdjust="spacing" textLength="52" x="559" y="251.5679">Entidad</text><line style="stroke:#181818;stroke-width:0.5;" x1="557" x2="613" y1="260.6699" y2="260.6699"/><line style="stroke:#181818;stroke-width:0.5;" x1="557" x2="613" y1="268.6699" y2="268.6699"/></g><!--class Modulo5--><g id="elem_Modulo5"><rect codeLine="73" fill="#F1F1F1" height="45.0679" id="Modulo5" rx="2.5" ry="2.5" style="stroke:#181818;stroke-width:0.5;" width="57" x="725.5" y="231.602"/><text fill="#000000" font-family="sans-serif" font-size="14" lengthAdjust="spacing" textLength="51" x="728.5" y="251.5679">M&#243;dulo</text><line style="stroke:#181818;stroke-width:0.5;" x1="726.5" x2="781.5" y1="260.6699" y2="260.6699"/><line style="stroke:#181818;stroke-width:0.5;" x1="726.5" x2="781.5" y1="268.6699" y2="268.6699"/></g><!--class Clase--><g id="elem_Clase"><rect codeLine="74" fill="#F1F1F1" height="45.0679" id="Clase" rx="2.5" ry="2.5" style="stroke:#181818;stroke-width:0.5;" width="42" x="733" y="336.602"/><text fill="#000000" font-family="sans-serif" font-size="14" lengthAdjust="spacing" textLength="36" x="736" y="356.5679">Clase</text><line style="stroke:#181818;stroke-width:0.5;" x1="734" x2="774" y1="365.6699" y2="365.6699"/><line style="stroke:#181818;stroke-width:0.5;" x1="734" x2="774" y1="373.6699" y2="373.6699"/></g><!--class Subprograma5--><g id="elem_Subprograma5"><rect codeLine="75" fill="#F1F1F1" height="45.0679" id="Subprograma5" rx="2.5" ry="2.5" style="stroke:#181818;stroke-width:0.5;" width="99" x="704.5" y="441.602"/><text fill="#000000" font-family="sans-serif" font-size="14" lengthAdjust="spacing" textLength="93" x="707.5" y="461.5679">Subprograma</text><line style="stroke:#181818;stroke-width:0.5;" x1="705.5" x2="802.5" y1="470.6699" y2="470.6699"/><line style="stroke:#181818;stroke-width:0.5;" x1="705.5" x2="802.5" y1="478.6699" y2="478.6699"/></g><!--class Sentencia5--><g id="elem_Sentencia5"><rect codeLine="76" fill="#F1F1F1" height="45.0679" id="Sentencia5" rx="2.5" ry="2.5" style="stroke:#181818;stroke-width:0.5;" width="72" x="718" y="546.602"/><text fill="#000000" font-family="sans-serif" font-size="14" lengthAdjust="spacing" textLength="66" x="721" y="566.5679">Sentencia</text><line style="stroke:#181818;stroke-width:0.5;" x1="719" x2="789" y1="575.6699" y2="575.6699"/><line style="stroke:#181818;stroke-width:0.5;" x1="719" x2="789" y1="583.6699" y2="583.6699"/></g><!--class Asignacion5--><g id="elem_Asignacion5"><rect codeLine="77" fill="#F1F1F1" height="45.0679" id="Asignacion5" rx="2.5" ry="2.5" style="stroke:#181818;stroke-width:0.5;" width="80" x="714" y="651.602"/><text fill="#000000" font-family="sans-serif" font-size="14" lengthAdjust="spacing" textLength="74" x="717" y="671.5679">Asignaci&#243;n</text><line style="stroke:#181818;stroke-width:0.5;" x1="715" x2="793" y1="680.6699" y2="680.6699"/><line style="stroke:#181818;stroke-width:0.5;" x1="715" x2="793" y1="688.6699" y2="688.6699"/></g><!--class Expresion5--><g id="elem_Expresion5"><rect codeLine="78" fill="#F1F1F1" height="45.0679" id="Expresion5" rx="2.5" ry="2.5" style="stroke:#181818;stroke-width:0.5;" width="72" x="718" y="756.602"/><text fill="#000000" font-family="sans-serif" font-size="14" lengthAdjust="spacing" textLength="66" x="721" y="776.5679">Expresi&#243;n</text><line style="stroke:#181818;stroke-width:0.5;" x1="719" x2="789" y1="785.6699" y2="785.6699"/><line style="stroke:#181818;stroke-width:0.5;" x1="719" x2="789" y1="793.6699" y2="793.6699"/></g><!--link Subprograma to Asignacion--><g id="link_Subprograma_Asignacion"><path codeLine="11" d="M78,288.942 C78,306.422 78,312.822 78,330.292 " fill="none" id="Subprograma-Asignacion" style="stroke:#181818;stroke-width:1.0;"/><polygon fill="#181818" points="78,276.942,74,282.942,78,288.942,82,282.942,78,276.942" style="stroke:#181818;stroke-width:1.0;"/><polygon fill="#181818" points="78,336.292,82,327.292,78,331.292,74,327.292,78,336.292" style="stroke:#181818;stroke-width:1.0;"/></g><!--link Asignacion to Expresion1--><g id="link_Asignacion_Expresion1"><path codeLine="12" d="M78,393.942 C78,411.422 78,417.822 78,435.292 " fill="none" id="Asignacion-Expresion1" style="stroke:#181818;stroke-width:1.0;"/><polygon fill="#181818" points="78,381.942,74,387.942,78,393.942,82,387.942,78,381.942" style="stroke:#181818;stroke-width:1.0;"/><polygon fill="#181818" points="78,441.292,82,432.292,78,436.292,74,432.292,78,441.292" style="stroke:#181818;stroke-width:1.0;"/></g><!--link Modulo2 to Subprograma2--><g id="link_Modulo2_Subprograma2"><path codeLine="31" d="M247,288.942 C247,306.422 247,312.822 247,330.292 " fill="none" id="Modulo2-Subprograma2" style="stroke:#181818;stroke-width:1.0;"/><polygon fill="#181818" points="247,276.942,243,282.942,247,288.942,251,282.942,247,276.942" style="stroke:#181818;stroke-width:1.0;"/><polygon fill="#181818" points="247,336.292,251,327.292,247,331.292,243,327.292,247,336.292" style="stroke:#181818;stroke-width:1.0;"/></g><!--link Subprograma2 to Asignacion2--><g id="link_Subprograma2_Asignacion2"><path codeLine="32" d="M247,393.942 C247,411.422 247,417.822 247,435.292 " fill="none" id="Subprograma2-Asignacion2" style="stroke:#181818;stroke-width:1.0;"/><polygon fill="#181818" points="247,381.942,243,387.942,247,393.942,251,387.942,247,381.942" style="stroke:#181818;stroke-width:1.0;"/><polygon fill="#181818" points="247,441.292,251,432.292,247,436.292,243,432.292,247,441.292" style="stroke:#181818;stroke-width:1.0;"/></g><!--link Asignacion2 to Expresion2--><g id="link_Asignacion2_Expresion2"><path codeLine="33" d="M247,498.942 C247,516.422 247,522.822 247,540.292 " fill="none" id="Asignacion2-Expresion2" style="stroke:#181818;stroke-width:1.0;"/><polygon fill="#181818" points="247,486.942,243,492.942,247,498.942,251,492.942,247,486.942" style="stroke:#181818;stroke-width:1.0;"/><polygon fill="#181818" points="247,546.292,251,537.292,247,541.292,243,537.292,247,546.292" style="stroke:#181818;stroke-width:1.0;"/></g><!--link Modulo3 to Subprograma3--><g id="link_Modulo3_Subprograma3"><path codeLine="48" d="M416,288.942 C416,306.422 416,312.822 416,330.292 " fill="none" id="Modulo3-Subprograma3" style="stroke:#181818;stroke-width:1.0;"/><polygon fill="#181818" points="416,276.942,412,282.942,416,288.942,420,282.942,416,276.942" style="stroke:#181818;stroke-width:1.0;"/><polygon fill="#181818" points="416,336.292,420,327.292,416,331.292,412,327.292,416,336.292" style="stroke:#181818;stroke-width:1.0;"/></g><!--link Subprograma3 to Sentencia3--><g id="link_Subprograma3_Sentencia3"><path codeLine="49" d="M416,393.942 C416,411.422 416,417.822 416,435.292 " fill="none" id="Subprograma3-Sentencia3" style="stroke:#181818;stroke-width:1.0;"/><polygon fill="#181818" points="416,381.942,412,387.942,416,393.942,420,387.942,416,381.942" style="stroke:#181818;stroke-width:1.0;"/><polygon fill="#181818" points="416,441.292,420,432.292,416,436.292,412,432.292,416,441.292" style="stroke:#181818;stroke-width:1.0;"/></g><!--link Sentencia3 to Asignacion3--><g id="link_Sentencia3_Asignacion3"><path codeLine="50" d="M416,498.942 C416,516.422 416,522.822 416,540.292 " fill="none" id="Sentencia3-Asignacion3" style="stroke:#181818;stroke-width:1.0;"/><polygon fill="#181818" points="416,486.942,412,492.942,416,498.942,420,492.942,416,486.942" style="stroke:#181818;stroke-width:1.0;"/><polygon fill="#181818" points="416,546.292,420,537.292,416,541.292,412,537.292,416,546.292" style="stroke:#181818;stroke-width:1.0;"/></g><!--link Asignacion3 to Expresion3--><g id="link_Asignacion3_Expresion3"><path codeLine="51" d="M416,603.942 C416,621.422 416,627.822 416,645.292 " fill="none" id="Asignacion3-Expresion3" style="stroke:#181818;stroke-width:1.0;"/><polygon fill="#181818" points="416,591.942,412,597.942,416,603.942,420,597.942,416,591.942" style="stroke:#181818;stroke-width:1.0;"/><polygon fill="#181818" points="416,651.292,420,642.292,416,646.292,412,642.292,416,651.292" style="stroke:#181818;stroke-width:1.0;"/></g><!--link Modulo5 to Clase--><g id="link_Modulo5_Clase"><path codeLine="80" d="M754,288.942 C754,306.422 754,312.822 754,330.292 " fill="none" id="Modulo5-Clase" style="stroke:#181818;stroke-width:1.0;"/><polygon fill="#181818" points="754,276.942,750,282.942,754,288.942,758,282.942,754,276.942" style="stroke:#181818;stroke-width:1.0;"/><polygon fill="#181818" points="754,336.292,758,327.292,754,331.292,750,327.292,754,336.292" style="stroke:#181818;stroke-width:1.0;"/></g><!--link Clase to Subprograma5--><g id="link_Clase_Subprograma5"><path codeLine="81" d="M754,393.942 C754,411.422 754,417.822 754,435.292 " fill="none" id="Clase-Subprograma5" style="stroke:#181818;stroke-width:1.0;"/><polygon fill="#181818" points="754,381.942,750,387.942,754,393.942,758,387.942,754,381.942" style="stroke:#181818;stroke-width:1.0;"/><polygon fill="#181818" points="754,441.292,758,432.292,754,436.292,750,432.292,754,441.292" style="stroke:#181818;stroke-width:1.0;"/></g><!--link Subprograma5 to Sentencia5--><g id="link_Subprograma5_Sentencia5"><path codeLine="82" d="M754,498.942 C754,516.422 754,522.822 754,540.292 " fill="none" id="Subprograma5-Sentencia5" style="stroke:#181818;stroke-width:1.0;"/><polygon fill="#181818" points="754,486.942,750,492.942,754,498.942,758,492.942,754,486.942" style="stroke:#181818;stroke-width:1.0;"/><polygon fill="#181818" points="754,546.292,758,537.292,754,541.292,750,537.292,754,546.292" style="stroke:#181818;stroke-width:1.0;"/></g><!--link Sentencia5 to Asignacion5--><g id="link_Sentencia5_Asignacion5"><path codeLine="83" d="M754,603.942 C754,621.422 754,627.822 754,645.292 " fill="none" id="Sentencia5-Asignacion5" style="stroke:#181818;stroke-width:1.0;"/><polygon fill="#181818" points="754,591.942,750,597.942,754,603.942,758,597.942,754,591.942" style="stroke:#181818;stroke-width:1.0;"/><polygon fill="#181818" points="754,651.292,758,642.292,754,646.292,750,642.292,754,651.292" style="stroke:#181818;stroke-width:1.0;"/></g><!--link Asignacion5 to Expresion5--><g id="link_Asignacion5_Expresion5"><path codeLine="84" d="M754,708.942 C754,726.422 754,732.822 754,750.292 " fill="none" id="Asignacion5-Expresion5" style="stroke:#181818;stroke-width:1.0;"/><polygon fill="#181818" points="754,696.942,750,702.942,754,708.942,758,702.942,754,696.942" style="stroke:#181818;stroke-width:1.0;"/><polygon fill="#181818" points="754,756.292,758,747.292,754,751.292,750,747.292,754,756.292" style="stroke:#181818;stroke-width:1.0;"/></g><!--SRC=[ZP91JiCm44NtFeNL9LAHQkCD2wI8TbcAL0w0Qrl14Ep8TW09zK0ikkeHSZ7ID94doCBTM9xCpupd_NdHKc6XdQWKGZKNRxnKU86_KQLAPIGEjaQFpfQEltEXswD1dRweWiKF-aDLwAGvIv6ekFTus-pgGJzycQs-QgVywUSPvXuFeJMBKL1uNPfp-LunnjOWK0vVpQNzDFCxc8_Nc0ODzd4eCXqAO_pK_dZjRn6U3eZnncbb0fSMyvEkImlbhKVeht1jPLDnTzrNAvRF7l8Ofrktnqvb-ydw7omPKs2wFWrYaeT3Se096lf5DfCEC4ZH9G0lIV0ba2_zRsbMFhX6XCPnoIzZH2zW53MTNSe8FIZ6YEOPqXn3YWQ8D0cHGeXG4jyGhod6532c2SOKChwPCYvCQ0z1zKiyvGqtUCc3JItcoWGjkOJrsRJ-jZsORFdDxbMb6oHSPKFglZlL1GwpZCCixp3BESn6Xrd4VtvVVoPjPz1sbh2THTjPodO6R6S9sndQ_m80]--></g></svg>