<?xml version="1.0" encoding="us-ascii" standalone="no"?><svg xmlns="http://www.w3.org/2000/svg" xmlns:xlink="http://www.w3.org/1999/xlink" contentStyleType="text/css" height="220px" preserveAspectRatio="none" style="width:158px;height:220px;background:#FFFFFF;" version="1.1" viewBox="0 0 158 220" width="158px" zoomAndPan="magnify"><defs/><g><!--class TIEMPO--><g id="elem_TIEMPO"><rect codeLine="5" fill="#F1F1F1" height="29.0679" id="TIEMPO" rx="2.5" ry="2.5" style="stroke:#181818;stroke-width:0.5;" width="59" x="7" y="7"/><text fill="#000000" font-family="sans-serif" font-size="14" lengthAdjust="spacing" textLength="53" x="10" y="26.9659">TIEMPO</text></g><!--class COSTE--><g id="elem_COSTE"><rect codeLine="6" fill="#F1F1F1" height="29.0679" id="COSTE" rx="2.5" ry="2.5" style="stroke:#181818;stroke-width:0.5;" width="50" x="101.5" y="7"/><text fill="#000000" font-family="sans-serif" font-size="14" lengthAdjust="spacing" textLength="44" x="104.5" y="26.9659">COSTE</text></g><!--class ?MBITO--><g id="elem_&#193;MBITO"><rect fill="#F1F1F1" height="29.0679" id="&#193;MBITO" rx="2.5" ry="2.5" style="stroke:#181818;stroke-width:0.5;" width="61" x="51" y="185"/><text fill="#000000" font-family="sans-serif" font-size="14" lengthAdjust="spacing" textLength="55" x="54" y="204.9659">&#193;MBITO</text></g><!--class CALIDAD--><g id="elem_CALIDAD"><rect fill="#F1F1F1" height="29.0679" id="CALIDAD" rx="2.5" ry="2.5" style="stroke:#181818;stroke-width:0.5;" width="65" x="49" y="96"/><text fill="#000000" font-family="sans-serif" font-size="14" lengthAdjust="spacing" textLength="59" x="52" y="115.9659">CALIDAD</text></g><!--link TIEMPO to COSTE--><g id="link_TIEMPO_COSTE"><path codeLine="8" d="M66.03,21.5 C77.84,21.5 83.65,21.5 95.46,21.5 " fill="none" id="TIEMPO-to-COSTE" style="stroke:#181818;stroke-width:1.0;"/><polygon fill="#181818" points="101.46,21.5,92.46,17.5,96.46,21.5,92.46,25.5,101.46,21.5" style="stroke:#181818;stroke-width:1.0;"/></g><!--link TIEMPO to ?MBITO--><g id="link_TIEMPO_&#193;MBITO"><path codeLine="9" d="M32.94,36.13 C28.37,56.13 22.06,94.35 31.5,125 C38.72,148.45 52.2785,166.6414 64.5285,180.4514 " fill="none" id="TIEMPO-to-&#193;MBITO" style="stroke:#181818;stroke-width:1.0;"/><polygon fill="#181818" points="68.51,184.94,65.5301,175.5528,65.192,181.1995,59.5453,180.8615,68.51,184.94" style="stroke:#181818;stroke-width:1.0;"/></g><!--link COSTE to ?MBITO--><g id="link_COSTE_&#193;MBITO"><path codeLine="10" d="M130.06,36.13 C134.63,56.13 140.94,94.35 131.5,125 C124.28,148.45 110.7215,166.6414 98.4715,180.4514 " fill="none" id="COSTE-to-&#193;MBITO" style="stroke:#181818;stroke-width:1.0;"/><polygon fill="#181818" points="94.49,184.94,103.4547,180.8615,97.808,181.1995,97.4699,175.5528,94.49,184.94" style="stroke:#181818;stroke-width:1.0;"/></g><!--reverse link TIEMPO to CALIDAD--><g id="link_TIEMPO_CALIDAD"><path codeLine="12" d="M46.2878,41.4187 C54.6978,57.6687 65.92,79.38 74.37,95.71 " fill="none" id="TIEMPO-backto-CALIDAD" style="stroke:#181818;stroke-width:1.0;"/><polygon fill="#181818" points="43.53,36.09,44.1142,45.9215,45.8282,40.5305,51.2191,42.2445,43.53,36.09" style="stroke:#181818;stroke-width:1.0;"/></g><!--reverse link COSTE to CALIDAD--><g id="link_COSTE_CALIDAD"><path codeLine="13" d="M116.7122,41.4187 C108.3022,57.6687 97.08,79.38 88.63,95.71 " fill="none" id="COSTE-backto-CALIDAD" style="stroke:#181818;stroke-width:1.0;"/><polygon fill="#181818" points="119.47,36.09,111.7809,42.2445,117.1718,40.5305,118.8858,45.9215,119.47,36.09" style="stroke:#181818;stroke-width:1.0;"/></g><!--link CALIDAD to ?MBITO--><g id="link_CALIDAD_&#193;MBITO"><path codeLine="14" d="M81.5,125.09 C81.5,141.34 81.5,162.38 81.5,178.71 " fill="none" id="CALIDAD-to-&#193;MBITO" style="stroke:#181818;stroke-width:1.0;"/><polygon fill="#181818" points="81.5,184.71,85.5,175.71,81.5,179.71,77.5,175.71,81.5,184.71" style="stroke:#181818;stroke-width:1.0;"/></g><!--SRC=[oyXCILL8pIqegLJ8JSrDIYqgvie02ILd5YNdf79n9USa5XShX7Yw-WRuGpdE_i4XhbnS4345tI9TEwWGJ2G5A7AuqTV9CyIV2oo3AiJbxEZZwUBeeg1R2XI56eqY1Z4EBeIi6G00]--></g></svg>