<?xml version="1.0" encoding="us-ascii" standalone="no"?><svg xmlns="http://www.w3.org/2000/svg" xmlns:xlink="http://www.w3.org/1999/xlink" contentStyleType="text/css" height="487px" preserveAspectRatio="none" style="width:406px;height:487px;background:#FFFFFF;" version="1.1" viewBox="0 0 406 487" width="406px" zoomAndPan="magnify"><defs/><g><!--class ProyectoSoftware--><g id="elem_ProyectoSoftware"><rect codeLine="5" fill="#F1F1F1" height="29.0679" id="ProyectoSoftware" rx="2.5" ry="2.5" style="stroke:#181818;stroke-width:0.5;" width="147" x="130" y="7"/><text fill="#000000" font-family="sans-serif" font-size="14" lengthAdjust="spacing" textLength="141" x="133" y="26.9659">Proyecto de Software</text></g><!--class ProductoSoftware--><g id="elem_ProductoSoftware"><rect codeLine="10" fill="#F1F1F1" height="29.0679" id="ProductoSoftware" rx="2.5" ry="2.5" style="stroke:#181818;stroke-width:0.5;" width="125" x="7" y="96"/><text fill="#000000" font-family="sans-serif" font-size="14" lengthAdjust="spacing" textLength="119" x="10" y="115.9659">ProductoSoftware</text></g><!--class Variable--><g id="elem_Variable"><rect codeLine="33" fill="#F1F1F1" height="29.0679" id="Variable" rx="2.5" ry="2.5" style="stroke:#181818;stroke-width:0.5;" width="61" x="218" y="185"/><text fill="#000000" font-family="sans-serif" font-size="14" lengthAdjust="spacing" textLength="55" x="221" y="204.9659">Variable</text></g><!--class Efectividad--><g id="elem_Efectividad"><rect codeLine="21" fill="#F1F1F1" height="29.0679" id="Efectividad" rx="2.5" ry="2.5" style="stroke:#181818;stroke-width:0.5;" width="80" x="256.5" y="96"/><text fill="#000000" font-family="sans-serif" font-size="14" lengthAdjust="spacing" textLength="74" x="259.5" y="115.9659">Efectividad</text></g><!--class Calidad--><g id="elem_Calidad"><rect codeLine="16" fill="#F1F1F1" height="29.0679" id="Calidad" rx="2.5" ry="2.5" style="stroke:#181818;stroke-width:0.5;" width="68" x="172.5" y="363"/><text fill="#000000" font-family="sans-serif" font-size="14" font-weight="bold" lengthAdjust="spacing" textLength="62" x="175.5" y="382.9659">CALIDAD</text></g><!--class Tiempo--><g id="elem_Tiempo"><rect codeLine="34" fill="#F1F1F1" height="29.0679" id="Tiempo" rx="2.5" ry="2.5" style="stroke:#181818;stroke-width:0.5;" width="60" x="86.5" y="274"/><text fill="#000000" font-family="sans-serif" font-size="14" font-weight="bold" lengthAdjust="spacing" textLength="54" x="89.5" y="293.9659">TIEMPO</text></g><!--class Mantenibilidad--><g id="elem_Mantenibilidad"><rect codeLine="19" fill="#F1F1F1" height="29.0679" id="Mantenibilidad" rx="2.5" ry="2.5" style="stroke:#181818;stroke-width:0.5;" width="109" x="152" y="452"/><text fill="#000000" font-family="sans-serif" font-size="14" lengthAdjust="spacing" textLength="103" x="155" y="471.9659">Mantenibilidad</text></g><!--class Eficacia--><g id="elem_Eficacia"><rect codeLine="22" fill="#F1F1F1" height="29.0679" id="Eficacia" rx="2.5" ry="2.5" style="stroke:#181818;stroke-width:0.5;" width="57" x="327" y="185"/><text fill="#000000" font-family="sans-serif" font-size="14" lengthAdjust="spacing" textLength="51" x="330" y="204.9659">Eficacia</text></g><!--class Eficiencia--><g id="elem_Eficiencia"><rect codeLine="23" fill="#F1F1F1" height="29.0679" id="Eficiencia" rx="2.5" ry="2.5" style="stroke:#181818;stroke-width:0.5;" width="70" x="112.5" y="185"/><text fill="#000000" font-family="sans-serif" font-size="14" lengthAdjust="spacing" textLength="64" x="115.5" y="204.9659">Eficiencia</text></g><!--class Ambito--><g id="elem_Ambito"><rect codeLine="27" fill="#F1F1F1" height="29.0679" id="Ambito" rx="2.5" ry="2.5" style="stroke:#181818;stroke-width:0.5;" width="62" x="337.5" y="274"/><text fill="#000000" font-family="sans-serif" font-size="14" font-weight="bold" lengthAdjust="spacing" textLength="56" x="340.5" y="293.9659">&#193;MBITO</text></g><!--class Coste--><g id="elem_Coste"><rect codeLine="35" fill="#F1F1F1" height="29.0679" id="Coste" rx="2.5" ry="2.5" style="stroke:#181818;stroke-width:0.5;" width="50" x="181.5" y="274"/><text fill="#000000" font-family="sans-serif" font-size="14" font-weight="bold" lengthAdjust="spacing" textLength="44" x="184.5" y="293.9659">COSTE</text></g><!--link ProyectoSoftware to ProductoSoftware--><g id="link_ProyectoSoftware_ProductoSoftware"><path codeLine="6" d="M172.4963,42.6262 C147.4763,58.8762 120.9229,76.1134 95.7629,92.4434 " fill="none" id="ProyectoSoftware-ProductoSoftware" style="stroke:#181818;stroke-width:1.0;"/><polygon fill="#181818" points="182.56,36.09,175.3494,36.0035,172.4963,42.6262,179.7069,42.7127,182.56,36.09" style="stroke:#181818;stroke-width:1.0;"/><polygon fill="#181818" points="90.73,95.71,100.457,94.1654,94.924,92.9879,96.1016,87.4549,90.73,95.71" style="stroke:#181818;stroke-width:1.0;"/></g><!--link ProyectoSoftware to Variable--><g id="link_ProyectoSoftware_Variable"><path codeLine="7" d="M209.9307,47.6465 C218.2807,80.3265 235.0537,145.907 243.4837,178.877 " fill="none" id="ProyectoSoftware-Variable" style="stroke:#181818;stroke-width:1.0;"/><polygon fill="#181818" points="206.96,36.02,204.5698,42.8235,209.9307,47.6465,212.3208,40.843,206.96,36.02" style="stroke:#181818;stroke-width:1.0;"/><polygon fill="#181818" points="244.97,184.69,246.6159,174.9796,243.7314,179.8458,238.8652,176.9614,244.97,184.69" style="stroke:#181818;stroke-width:1.0;"/></g><!--link ProyectoSoftware to Efectividad--><g id="link_ProyectoSoftware_Efectividad"><path codeLine="8" d="M226.7931,44.2881 C244.1631,60.5381 259.9179,75.2815 277.3779,91.6115 " fill="none" id="ProyectoSoftware-Efectividad" style="stroke:#181818;stroke-width:1.0;"/><polygon fill="#181818" points="218.03,36.09,219.6789,43.1101,226.7931,44.2881,225.1442,37.268,218.03,36.09" style="stroke:#181818;stroke-width:1.0;"/><polygon fill="#181818" points="281.76,95.71,277.9192,86.6409,278.1083,92.2946,272.4546,92.4837,281.76,95.71" style="stroke:#181818;stroke-width:1.0;"/></g><!--link ProductoSoftware to Calidad--><g id="link_ProductoSoftware_Calidad"><path codeLine="14" d="M61.6254,136.7839 C51.7354,170.1039 34.85,245.08 69.5,303 C91.6,339.94 133.582,357.7277 166.432,367.1377 " fill="none" id="ProductoSoftware-Calidad" style="stroke:#181818;stroke-width:1.0;"/><polygon fill="#181818" points="65.04,125.28,59.4981,129.8938,61.6254,136.7839,67.1674,132.1702,65.04,125.28" style="stroke:#181818;stroke-width:1.0;"/><polygon fill="#181818" points="172.2,368.79,164.6495,362.4663,167.3933,367.4131,162.4465,370.1569,172.2,368.79" style="stroke:#181818;stroke-width:1.0;"/></g><!--link Calidad to Mantenibilidad--><g id="link_Calidad_Mantenibilidad"><path codeLine="17" d="M206.5,404.09 C206.5,420.34 206.5,429.38 206.5,445.71 " fill="none" id="Calidad-Mantenibilidad" style="stroke:#181818;stroke-width:1.0;"/><polygon fill="#181818" points="206.5,392.09,202.5,398.09,206.5,404.09,210.5,398.09,206.5,392.09" style="stroke:#181818;stroke-width:1.0;"/><polygon fill="#181818" points="206.5,451.71,210.5,442.71,206.5,446.71,202.5,442.71,206.5,451.71" style="stroke:#181818;stroke-width:1.0;"/></g><!--link Efectividad to Eficacia--><g id="link_Efectividad_Eficacia"><path codeLine="24" d="M312.4552,135.0216 C323.4752,151.2716 331.7012,163.415 342.7812,179.745 " fill="none" id="Efectividad-Eficacia" style="stroke:#181818;stroke-width:1.0;"/><polygon fill="#181818" points="305.72,125.09,305.777,132.3009,312.4552,135.0216,312.3981,127.8108,305.72,125.09" style="stroke:#181818;stroke-width:1.0;"/><polygon fill="#181818" points="346.15,184.71,344.4068,175.0166,343.3427,180.5725,337.7868,179.5083,346.15,184.71" style="stroke:#181818;stroke-width:1.0;"/></g><!--link Efectividad to Eficiencia--><g id="link_Efectividad_Eficiencia"><path codeLine="25" d="M262.8572,131.1409 C235.0272,147.3909 204.2615,165.3548 176.2915,181.6848 " fill="none" id="Efectividad-Eficiencia" style="stroke:#181818;stroke-width:1.0;"/><polygon fill="#181818" points="273.22,125.09,266.0217,124.6612,262.8572,131.1409,270.0556,131.5697,273.22,125.09" style="stroke:#181818;stroke-width:1.0;"/><polygon fill="#181818" points="171.11,184.71,180.8991,183.6266,175.4279,182.189,176.8655,176.7179,171.11,184.71" style="stroke:#181818;stroke-width:1.0;"/></g><!--link Eficacia to Ambito--><g id="link_Eficacia_Ambito"><path codeLine="28" d="M357.53,214.09 C359.96,230.34 363.1133,251.4459 365.5533,267.7759 " fill="none" id="Eficacia-to-Ambito" style="stroke:#181818;stroke-width:1.0;"/><polygon fill="#181818" points="366.44,273.71,369.0661,264.2177,365.7011,268.7649,361.1539,265.3999,366.44,273.71" style="stroke:#181818;stroke-width:1.0;"/></g><!--link Eficiencia to Tiempo--><g id="link_Eficiencia_Tiempo"><path codeLine="29" d="M142.66,214.09 C136.87,230.34 129.2443,251.7282 123.4243,268.0582 " fill="none" id="Eficiencia-to-Tiempo" style="stroke:#181818;stroke-width:1.0;"/><polygon fill="#181818" points="121.41,273.71,128.1993,266.5752,123.0886,269.0002,120.6636,263.8895,121.41,273.71" style="stroke:#181818;stroke-width:1.0;"/></g><!--link Eficiencia to Coste--><g id="link_Eficiencia_Coste"><path codeLine="31" d="M156.72,214.09 C167.74,230.34 182.7012,252.415 193.7812,268.745 " fill="none" id="Eficiencia-to-Coste" style="stroke:#181818;stroke-width:1.0;"/><polygon fill="#181818" points="197.15,273.71,195.4068,264.0166,194.3427,269.5725,188.7868,268.5083,197.15,273.71" style="stroke:#181818;stroke-width:1.0;"/></g><!--reverse link Variable to Tiempo--><g id="link_Variable_Tiempo"><path codeLine="37" d="M212.8499,223.9943 C188.1899,240.2443 162.2,257.38 137.42,273.71 " fill="none" id="Variable-backto-Tiempo" style="stroke:#181818;stroke-width:1.0;"/><polygon fill="none" points="227.88,214.09,209.5484,218.9842,216.1513,229.0043,227.88,214.09" style="stroke:#181818;stroke-width:1.0;"/></g><!--reverse link Variable to Ambito--><g id="link_Variable_Ambito"><path codeLine="38" d="M281.8221,224.6566 C304.2321,240.9066 326.96,257.38 349.49,273.71 " fill="none" id="Variable-backto-Ambito" style="stroke:#181818;stroke-width:1.0;"/><polygon fill="none" points="267.25,214.09,278.2999,229.514,285.3443,219.7992,267.25,214.09" style="stroke:#181818;stroke-width:1.0;"/></g><!--reverse link Variable to Coste--><g id="link_Variable_Coste"><path codeLine="39" d="M234.1103,230.2979 C226.2603,246.5479 221.04,257.38 213.16,273.71 " fill="none" id="Variable-backto-Coste" style="stroke:#181818;stroke-width:1.0;"/><polygon fill="none" points="241.94,214.09,228.7077,227.688,239.513,232.9078,241.94,214.09" style="stroke:#181818;stroke-width:1.0;"/></g><!--reverse link Variable to Calidad--><g id="link_Variable_Calidad"><path codeLine="40" d="M253.6556,231.8524 C256.7056,251.7624 257.88,272.08 249.5,303 C243.31,325.83 228.06,348.83 217.5,362.88 " fill="none" id="Variable-backto-Calidad" style="stroke:#181818;stroke-width:1.0;"/><polygon fill="none" points="250.93,214.06,247.7248,232.761,259.5864,230.9439,250.93,214.06" style="stroke:#181818;stroke-width:1.0;"/></g><!--link Tiempo to Calidad--><g id="link_Tiempo_Calidad"><path codeLine="42" d="M130.56,303.09 C147.37,319.34 171.0252,342.2107 187.9252,358.5407 " fill="none" id="Tiempo-to-Calidad" style="stroke:#181818;stroke-width:1.0;"/><polygon fill="#181818" points="192.24,362.71,188.5473,353.5796,188.6443,359.2356,182.9883,359.3326,192.24,362.71" style="stroke:#181818;stroke-width:1.0;"/></g><!--link Ambito to Calidad--><g id="link_Ambito_Calidad"><path codeLine="43" d="M343.19,303.09 C312.84,319.39 267.576,343.7013 237.186,360.0213 " fill="none" id="Ambito-to-Calidad" style="stroke:#181818;stroke-width:1.0;"/><polygon fill="#181818" points="231.9,362.86,241.7215,362.126,236.305,360.4944,237.9366,355.078,231.9,362.86" style="stroke:#181818;stroke-width:1.0;"/></g><!--link Coste to Calidad--><g id="link_Coste_Calidad"><path codeLine="44" d="M206.5,303.09 C206.5,319.34 206.5,340.38 206.5,356.71 " fill="none" id="Coste-to-Calidad" style="stroke:#181818;stroke-width:1.0;"/><polygon fill="#181818" points="206.5,362.71,210.5,353.71,206.5,357.71,202.5,353.71,206.5,362.71" style="stroke:#181818;stroke-width:1.0;"/></g><!--SRC=[ZP9DQiCm48NtEeN8CX1w0MDm4oyCDGd4TA-_a07R2fBQ4CYcP-l5QbkIBLjkwShCUzyyZKQ-0XTOD3Vpm8reg50QNNk9WMArG8ZLH6kyEIdv4Cn8t5bdUJ5teiG64uszuKMq5F1sn-MztQKzoZ_-XxuJ1OJMVo7vfTFX4pZXuPJ32T68ytCTdT1qdxqLX-oGlD1qGFUa7W8deYhoydGSWGgwNKc4bfdJN3x2PVZIVIUk9AqHBL2OuUjgU5Ul02CCI522Q7iXOCDbEVnNrtK7D__-Ab-BQhfwrb0m4laexBi3tOQCZbjMiExZkSgdPKjjn5gVDLpV-2lOSfRfG8_Wv6aZF1KRRjZOi54hkdzE6ucNpsm38tc8YzGV]--></g></svg>